<svg xmlns="http://www.w3.org/2000/svg" viewBox="0 0 187.13 97.76"><defs><style>.cls-1{fill-rule:evenodd;}</style></defs><g id="Capa_2" data-name="Capa 2"><g id="Capa_1-2" data-name="Capa 1"><path class="cls-1" d="M31.37,59.85A2.56,2.56,0,1,0,34,62.41,2.53,2.53,0,0,0,31.37,59.85Zm0,4.38a1.83,1.83,0,1,1,1.84-1.82A1.8,1.8,0,0,1,31.37,64.23ZM57.18,50.89H44.27l1.46-22.44L37.35,50.89h-12L44.38.15H57.14L55.67,22.91,64.22.15h12Zm1.56,0L77.77.15h12l-19,50.74Z"/><path class="cls-1" d="M24,33.4C7.21,53.09-8.6,79.27,5.37,91.33c13.53,11.69,30.44,4.77,42,.16s139-60,139-60c1.23-.61,1-1.38-.54-1L47,68.11C29.51,73,9.52,62.31,24,33.4Z"/><path class="cls-1" d="M31.82,62.59a.64.64,0,0,0,.66-.73c0-.66-.43-.83-1.16-.83h-1v2.75H31V62.61h.12l.63,1.17h.8Zm-.45-.45H31V61.5h.33c.2,0,.44,0,.44.29S31.61,62.14,31.37,62.14ZM151.92,0a2.53,2.53,0,0,0-2.65,2.56,2.66,2.66,0,0,0,5.31,0A2.53,2.53,0,0,0,151.92,0Zm0,4.38a1.78,1.78,0,0,1-1.84-1.82A1.78,1.78,0,0,1,151.92.73a1.8,1.8,0,0,1,1.85,1.83A1.8,1.8,0,0,1,151.92,4.38Z"/><path class="cls-1" d="M152.38,2.74A.64.64,0,0,0,153,2c0-.66-.43-.83-1.16-.83h-1V3.94h.69V2.76h.12l.63,1.18h.8Zm-.45-.45h-.4V1.65h.34c.2,0,.44,0,.44.3s-.14.34-.38.34ZM144,8.61,147.24.15H110.65L98.09,15.38,103.89.15H91.74L72.86,50.89h12l8.06-21.21.55,21.21,36.8-.08,3.5-9.76h-14l4.6-12.3h11.53l3.54-9.45H127.92l4-10.69Zm-38.65,38.9-.77-26.44L122.73,1.16Z"/></g></g></svg>