<svg xmlns="http://www.w3.org/2000/svg" viewBox="0 0 320.94 67.68"><defs><style>.cls-1{fill:#fff;}</style></defs><g id="Capa_2" data-name="Capa 2"><g id="Capa_1-2" data-name="Capa 1"><path d="M45.82,67.26c-11.11.15-22.22.34-33.33.42A59.47,59.47,0,0,1,5.6,67,6.59,6.59,0,0,1,4,66.55C.58,65.24-.56,63.14.25,59.6c1.19-5.14,2.46-10.26,3.61-15.4,2.28-10.29,4.67-20.57,6.67-30.91.93-4.85,3.67-7.52,8.13-8.63a35,35,0,0,1,7.81-1.07q28.41-.44,56.82-.66c4.95-.05,9.9,0,14.85.12a13,13,0,0,1,4.17,1c3.35,1.28,4.38,3.27,3.64,6.78-.78,3.67-1.61,7.33-2.43,11-2.67,12.09-5.43,24.16-8,36.27a9.1,9.1,0,0,1-6.05,7.1,25.37,25.37,0,0,1-8.9,1.68c-11.59.18-23.18.31-34.77.46ZM35.75,13.6c-3,13.89-6,27.51-9.08,41.52,16.92-.3,33.48-.14,50.12-.66,3-13.92,6-27.61,9.1-41.58Z"/><path d="M110.34,54.17l75.33-1.05c1.28-5.63,2.52-11.13,3.82-16.84-.85-.05-1.54-.15-2.22-.14l-54.42.65c-3.75,0-7.5,0-11.25,0a7.66,7.66,0,0,1-1.43-.18c-3.94-.77-5.29-2.71-4.5-6.65,1.28-6.42,2.63-12.83,4-19.24a8.77,8.77,0,0,1,4.88-6.17,23.13,23.13,0,0,1,10.68-2.31q27.33-.39,54.66-.66c4.71-.05,9.42-.08,14.13.08a15,15,0,0,1,4.87,1.12c3.12,1.21,4,3.12,3.29,6.45-.11.54-.21,1.09-.37,1.92-22.31.58-44.65.49-67.25,1-1,4.76-2,9.48-3.13,14.57,1.26,0,2.27,0,3.28,0,17.5-.23,35-.48,52.5-.66,2.46,0,4.93.28,7.39.46a6.91,6.91,0,0,1,1.4.32c3.2,1,4.25,2.69,3.64,6-.43,2.28-1,4.53-1.44,6.8-1.24,5.78-2.57,11.54-3.7,17.34a8.58,8.58,0,0,1-5.13,6.47,23.54,23.54,0,0,1-9.78,2q-21.23.3-42.44.54c-8.79.11-17.57.3-26.36.31a27.39,27.39,0,0,1-6.86-.87c-3.94-1-5.18-3.18-4.45-7.13C109.68,57,110,55.65,110.34,54.17Z"/><path d="M254.58,32.6c-1-.83-1.75-1.5-2.54-2.15L229.83,12.14c-3.55-2.93-3.07-7,1.22-8.8a19.34,19.34,0,0,1,5.59-1.11c2.06-.2,4.16,0,6.23-.13a10.85,10.85,0,0,1,7.51,2.6c6.47,5.22,13,10.35,19.54,15.51.49.39,1,.76,1.67,1.24.59-.34,1.2-.66,1.79-1,8.29-5.28,16.76-10.3,24.78-16,5.5-3.88,11.32-4.88,17.69-4.3a8.25,8.25,0,0,1,3,.84,3.71,3.71,0,0,1,1,6.05,13.49,13.49,0,0,1-2.31,1.7Q301.55,19,285.6,29.21c-.73.47-1.46,1-2.48,1.65.73.65,1.33,1.22,2,1.74l24,19.52.75.61c3.29,2.69,3.23,6.15-.26,8.7A12.27,12.27,0,0,1,302.24,64c-1.68,0-3.36,0-5,0a13.33,13.33,0,0,1-9-3.34c-6.47-5.47-13-10.87-19.51-16.3-.61-.51-1.24-1-2-1.61-.66.43-1.32.83-1.95,1.28-7.83,5.69-15.66,11.36-23.46,17.09a16.74,16.74,0,0,1-6.73,3,42.92,42.92,0,0,1-15.49.38,8.88,8.88,0,0,1-2.7-.91c-1.81-1-2.35-2.59-1.08-4.19A21.38,21.38,0,0,1,220,55c8.48-5.58,17-11,25.58-16.52C248.49,36.58,251.42,34.66,254.58,32.6Z"/><path class="cls-1" d="M35.75,13.6l50.14-.72c-3.06,14-6,27.66-9.1,41.58-16.64.52-33.2.36-50.12.66C29.73,41.11,32.71,27.49,35.75,13.6Z"/></g></g></svg>