<svg xmlns="http://www.w3.org/2000/svg" viewBox="0 0 885.83 441.38"><g id="Capa_2" data-name="Capa 2"><g id="Capa_1-2" data-name="Capa 1"><path d="M477.42,1.5c-2.89.44-5.68,11.11-11.28,16.67-4.1,4-9.21,3.76-11.93,8.72-1,1.86-.69,5-1.86,8.06C450.06,41,442,41.56,442,48.18c0,7.15,6.72,8.51,12.55,13.59,4.56,4.08,5,6.89,10.52,8.87,4.71,1.6,11.72-3.64,18-1.76,5.18,1.55,10.14,2.67,11.31,8,1,4.9-.07,12.51-6.35,11.63-2.12-.24-11.3-3.33-22.59-2.13-13.61,1.55-29.14,6-30.66,21.16C434,116,444.47,126,454.6,124c7-1.38,3.7-9.64,7.51-13.65,5-5.14,33.34,18,59.69,18,11.09,0,19.33-2.8,27.53-11.39.76-.65,1.69-2.06,2.88-2.14a9.92,9.92,0,0,1,3.7,1.66c21.22,17.05,37.26,51.25,115.23,51.65,11,.06,23.46,5.3,33.66,14.6,9.1,8.42,14.42,21.5,19.59,34.78,7.8,19.92,21.79,39.3,43,60.87,1.16,1.15,18.62,14.72,20,15.74.22.14,1.5,3.2,1.06,4.92-.52,12.92-2.4,50.53,25.63,52.23,6.86.34,5.06-4.48,5.06-7.79,0-6.55-1.21-13.06,2.24-19.76,4.72-9.22-10-13.47-9.58-33.41.3-14.86-12.18-12.33-18.52-23.65-3.65-6.56-6.89-10-6.66-18.07,1.42-45.17-9.61-74.84-15.11-82.13-4.29-5.5-7.85-7.69-3.92-10.24,23.39-15.45,28.7-29.83,28.7-29.83,12.44-29.24,23.63-55.95,39.05-67.7,3.11-2.43,11.08-8.38,16-10.72,14.39-6.78,22-10.89,26.15-15,6.62-6.45,11.84-19.89,5.5-28-7.88-10.06-21.52-2.08-27.54,1.49-43,25.52-49.35,70.55-64.24,96.4C779.3,123.45,760,138.63,742.7,139.87c-13,1-26.92-1.66-40.82-7.76-33.81-14.83-52.32-34-56.68-37.35-9.08-7-79.6-76.24-136.74-79.07,0,0-7.09-14.19-8.87-14.43-4.18-.53-8.46,8.48-11.52,9.53-2.89,1-7.73-9.77-10.65-9.29M225.9,414.67a10.17,10.17,0,0,1-9.94-10V226.45H157.23V422.9a17.46,17.46,0,0,0,17.37,17.49H277.27a17.39,17.39,0,0,0,17.34-17.49V226.45H235.93l-.05,178.22a10.18,10.18,0,0,1-10,10M422.56,226.45h-88.9a19.13,19.13,0,0,0-19.08,19.19V440.39h58.79V261.74a10,10,0,0,1,19.95-.15v178.8h58.55V261.59a9.81,9.81,0,0,1,9.95-9.66,9.92,9.92,0,0,1,10,9.81V440.39h58.79V245.64a19.14,19.14,0,0,0-19.1-19.19ZM78.63,262.12a10.07,10.07,0,0,0-9.95-10.19h-10V360.14h10a9.92,9.92,0,0,0,9.95-10ZM118,386.62H58.71v53.77H0V226.45H118.42a19,19,0,0,1,18.88,19.27V367.36A19.22,19.22,0,0,1,118,386.62m614,5.92c-11.8,0-21.71,10.2-21.71,22.56a22.33,22.33,0,0,0,22.08,22.51c12.08,0,21.86-10.11,21.86-22.51s-9.78-22.56-21.86-22.56ZM758.48,415a26.17,26.17,0,1,1-52.34,0c0-14.34,11.7-26.32,25.84-26.32A26.17,26.17,0,0,1,758.48,415"/><path d="M729.7,413.36c4.08,0,6.23-1.45,6.23-4.35,0-2.58-2.08-3.9-6-3.9h-1.17v8.25Zm15,16.91h-7l-9-12v12H723V399.94h6c8.18,0,12.53,3.1,12.53,9a8.83,8.83,0,0,1-6.15,8.49l-.42.15ZM629.14,360.18V261.67a10,10,0,0,0-19.95.15v98.36Zm0,80.21V386.68H609.19v53.71H550.51V245.64a19.13,19.13,0,0,1,19.09-19.19h99.13a19.14,19.14,0,0,1,19.12,19.19V440.39Z"/></g></g></svg>